<svg id="visual" viewBox="0 0 1200 5800" width="1200" height="5800" xmlns="http://www.w3.org/2000/svg" xmlns:xlink="http://www.w3.org/1999/xlink" version="1.1"><path d="M0 349L25 339.3C50 329.7 100 310.3 150 300.7C200 291 250 291 300 320C350 349 400 407 450 407C500 407 550 349 600 329.7C650 310.3 700 329.7 750 320C800 310.3 850 271.7 900 242.7C950 213.7 1000 194.3 1050 175C1100 155.7 1150 136.3 1175 126.7L1200 117L1200 0L1175 0C1150 0 1100 0 1050 0C1000 0 950 0 900 0C850 0 800 0 750 0C700 0 650 0 600 0C550 0 500 0 450 0C400 0 350 0 300 0C250 0 200 0 150 0C100 0 50 0 25 0L0 0Z" fill="#6198ff"></path><path d="M0 871L25 861.3C50 851.7 100 832.3 150 803.3C200 774.3 250 735.7 300 735.7C350 735.7 400 774.3 450 755C500 735.7 550 658.3 600 600.3C650 542.3 700 503.7 750 532.7C800 561.7 850 658.3 900 687.3C950 716.3 1000 677.7 1050 619.7C1100 561.7 1150 484.3 1175 445.7L1200 407L1200 115L1175 124.7C1150 134.3 1100 153.7 1050 173C1000 192.3 950 211.7 900 240.7C850 269.7 800 308.3 750 318C700 327.7 650 308.3 600 327.7C550 347 500 405 450 405C400 405 350 347 300 318C250 289 200 289 150 298.7C100 308.3 50 327.7 25 337.3L0 347Z" fill="#518dff"></path><path d="M0 1161L25 1199.7C50 1238.3 100 1315.7 150 1325.3C200 1335 250 1277 300 1238.3C350 1199.7 400 1180.3 450 1199.7C500 1219 550 1277 600 1277C650 1277 700 1219 750 1190C800 1161 850 1161 900 1103C950 1045 1000 929 1050 929C1100 929 1150 1045 1175 1103L1200 1161L1200 405L1175 443.7C1150 482.3 1100 559.7 1050 617.7C1000 675.7 950 714.3 900 685.3C850 656.3 800 559.7 750 530.7C700 501.7 650 540.3 600 598.3C550 656.3 500 733.7 450 753C400 772.3 350 733.7 300 733.7C250 733.7 200 772.3 150 801.3C100 830.3 50 849.7 25 859.3L0 869Z" fill="#4082ff"></path><path d="M0 1973L25 2021.3C50 2069.7 100 2166.3 150 2147C200 2127.7 250 1992.3 300 1992.3C350 1992.3 400 2127.7 450 2147C500 2166.3 550 2069.7 600 2060C650 2050.3 700 2127.7 750 2079.3C800 2031 850 1857 900 1712C950 1567 1000 1451 1050 1557.3C1100 1663.7 1150 1992.3 1175 2156.7L1200 2321L1200 1159L1175 1101C1150 1043 1100 927 1050 927C1000 927 950 1043 900 1101C850 1159 800 1159 750 1188C700 1217 650 1275 600 1275C550 1275 500 1217 450 1197.7C400 1178.3 350 1197.7 300 1236.3C250 1275 200 1333 150 1323.3C100 1313.7 50 1236.3 25 1197.7L0 1159Z" fill="#2d77ff"></path><path d="M0 3713L25 3539C50 3365 100 3017 150 2862.3C200 2707.7 250 2746.3 300 2881.7C350 3017 400 3249 450 3200.7C500 3152.3 550 2823.7 600 2814C650 2804.3 700 3113.7 750 3113.7C800 3113.7 850 2804.3 900 2756C950 2707.7 1000 2920.3 1050 2997.7C1100 3075 1150 3017 1175 2988L1200 2959L1200 2319L1175 2154.7C1150 1990.3 1100 1661.7 1050 1555.3C1000 1449 950 1565 900 1710C850 1855 800 2029 750 2077.3C700 2125.7 650 2048.3 600 2058C550 2067.7 500 2164.3 450 2145C400 2125.7 350 1990.3 300 1990.3C250 1990.3 200 2125.7 150 2145C100 2164.3 50 2067.7 25 2019.3L0 1971Z" fill="#156cff"></path><path d="M0 4003L25 3906.3C50 3809.7 100 3616.3 150 3461.7C200 3307 250 3191 300 3258.7C350 3326.3 400 3577.7 450 3616.3C500 3655 550 3481 600 3481C650 3481 700 3655 750 3635.7C800 3616.3 850 3403.7 900 3423C950 3442.3 1000 3693.7 1050 3790.3C1100 3887 1150 3829 1175 3800L1200 3771L1200 2957L1175 2986C1150 3015 1100 3073 1050 2995.7C1000 2918.3 950 2705.7 900 2754C850 2802.3 800 3111.7 750 3111.7C700 3111.7 650 2802.3 600 2812C550 2821.7 500 3150.3 450 3198.7C400 3247 350 3015 300 2879.7C250 2744.3 200 2705.7 150 2860.3C100 3015 50 3363 25 3537L0 3711Z" fill="#0063f7"></path><path d="M0 4409L25 4283.3C50 4157.7 100 3906.3 150 3713C200 3519.7 250 3384.3 300 3481C350 3577.7 400 3906.3 450 3974C500 4041.7 550 3848.3 600 3829C650 3809.7 700 3964.3 750 3906.3C800 3848.3 850 3577.7 900 3568C950 3558.3 1000 3809.7 1050 3916C1100 4022.3 1150 3983.7 1175 3964.3L1200 3945L1200 3769L1175 3798C1150 3827 1100 3885 1050 3788.3C1000 3691.7 950 3440.3 900 3421C850 3401.7 800 3614.3 750 3633.7C700 3653 650 3479 600 3479C550 3479 500 3653 450 3614.3C400 3575.7 350 3324.3 300 3256.7C250 3189 200 3305 150 3459.7C100 3614.3 50 3807.7 25 3904.3L0 4001Z" fill="#005de8"></path><path d="M0 4699L25 4554C50 4409 100 4119 150 3945C200 3771 250 3713 300 3838.7C350 3964.3 400 4273.7 450 4302.7C500 4331.7 550 4080.3 600 4041.7C650 4003 700 4177 750 4119C800 4061 850 3771 900 3780.7C950 3790.3 1000 4099.7 1050 4225.3C1100 4351 1150 4293 1175 4264L1200 4235L1200 3943L1175 3962.3C1150 3981.7 1100 4020.3 1050 3914C1000 3807.7 950 3556.3 900 3566C850 3575.7 800 3846.3 750 3904.3C700 3962.3 650 3807.7 600 3827C550 3846.3 500 4039.7 450 3972C400 3904.3 350 3575.7 300 3479C250 3382.3 200 3517.7 150 3711C100 3904.3 50 4155.7 25 4281.3L0 4407Z" fill="#0057d9"></path><path d="M0 5511L25 5491.7C50 5472.3 100 5433.7 150 5375.7C200 5317.7 250 5240.3 300 5240.3C350 5240.3 400 5317.7 450 5395C500 5472.3 550 5549.7 600 5549.7C650 5549.7 700 5472.3 750 5385.3C800 5298.3 850 5201.7 900 5230.7C950 5259.7 1000 5414.3 1050 5491.7C1100 5569 1150 5569 1175 5569L1200 5569L1200 4233L1175 4262C1150 4291 1100 4349 1050 4223.3C1000 4097.7 950 3788.3 900 3778.7C850 3769 800 4059 750 4117C700 4175 650 4001 600 4039.7C550 4078.3 500 4329.7 450 4300.7C400 4271.7 350 3962.3 300 3836.7C250 3711 200 3769 150 3943C100 4117 50 4407 25 4552L0 4697Z" fill="#0052ca"></path><path d="M0 5801L25 5801C50 5801 100 5801 150 5801C200 5801 250 5801 300 5801C350 5801 400 5801 450 5801C500 5801 550 5801 600 5801C650 5801 700 5801 750 5801C800 5801 850 5801 900 5801C950 5801 1000 5801 1050 5801C1100 5801 1150 5801 1175 5801L1200 5801L1200 5567L1175 5567C1150 5567 1100 5567 1050 5489.7C1000 5412.3 950 5257.7 900 5228.7C850 5199.7 800 5296.3 750 5383.3C700 5470.3 650 5547.7 600 5547.7C550 5547.7 500 5470.3 450 5393C400 5315.7 350 5238.3 300 5238.3C250 5238.3 200 5315.7 150 5373.7C100 5431.7 50 5470.3 25 5489.7L0 5509Z" fill="#004cbb"></path></svg>